<svg width="31" height="32" viewBox="0 0 31 32" version="1.1" xmlns="http://www.w3.org/2000/svg" xmlns:xlink="http://www.w3.org/1999/xlink">
<title>chillIcon</title>
<desc>Created using Figma</desc>
<g id="Canvas" transform="translate(-827 28)">
<g id="chillIcon">
<g id="Shape">
<use xlink:href="#path0_fill" transform="translate(827.113 -27.9244)" fill="#6CEAAE"/>
</g>
</g>
</g>
<defs>
<path id="path0_fill" fill-rule="evenodd" d="M 30.8482 6.03305C 30.9241 6.26071 30.8862 6.56426 30.6965 6.75398L 18.8201 19.1995L 18.8201 29.634L 25.3843 29.634C 25.7638 29.634 26.0673 29.9376 26.0673 30.317C 26.0673 30.6964 25.7638 31 25.3843 31L 10.8898 31C 10.5104 31 10.2068 30.6964 10.2068 30.317C 10.2068 29.9376 10.5104 29.634 10.8898 29.634L 17.4541 29.634L 17.4541 19.1995L 7.13342 8.38556L 7.13342 12.2179C 7.13342 12.5973 6.8299 12.9009 6.45044 12.9009C 4.74298 12.9009 3.11139 12.2179 1.89716 11.0037C 0.682983 9.78947 0 8.15789 0 6.45043C 0 4.74296 0.682983 3.11138 1.89716 1.89718C 3.11139 0.682987 4.74298 0 6.45044 0C 8.1579 0 9.78949 0.682987 11.0037 1.89718C 11.2693 2.16279 11.2693 2.58017 11.0037 2.84578L 8.23376 5.61567L 30.2411 5.61567C 30.5067 5.61567 30.7344 5.76744 30.8482 6.03305ZM 5.1983 6.14688L 2.23022 2.95961C 1.58099 3.90583 1.16357 4.95165 1.02448 6.14688L 5.1983 6.14688ZM 2.23022 10.2827C 1.58099 9.33652 1.16357 8.2409 1.02448 7.09547L 5.1983 7.09547L 3.15778 9.28672L 2.23022 10.2827ZM 2.95959 10.9404C 3.90582 11.6487 5.00146 12.104 6.14685 12.2558L 6.14685 7.70257L 2.95959 10.9404ZM 6.14691 5.57772L 2.5802 2.33986C 3.63904 1.63158 4.86511 1.17625 6.14691 1.02448L 6.14691 5.57772ZM 10.3207 2.1923C 9.37445 1.54304 8.27887 1.12566 7.13342 0.986536L 7.13342 5.16034L 10.3207 2.1923ZM 7.24725 6.18482L 29.0269 6.18482L 25.6853 10.3123L 22.6581 10.3586L 10.5889 10.3586L 7.24725 6.18482ZM 11.3831 10.9278L 18.1371 18.7062L 24.8911 10.9278L 23.6942 10.9278L 11.3831 10.9278Z"/>
</defs>
</svg>
