<svg width="31" height="31" viewBox="0 0 31 31" version="1.1" xmlns="http://www.w3.org/2000/svg" xmlns:xlink="http://www.w3.org/1999/xlink">
<title>smartIcon</title>
<desc>Created using Figma</desc>
<g id="Canvas" transform="translate(-2 28)">
<g id="smartIcon">
<g id="Shape">
<use xlink:href="#path0_fill" transform="translate(2 -28)" fill="#6DECAF"/>
</g>
<g id="Shape">
<use xlink:href="#path1_fill" transform="translate(4.93782 -25.3257)" fill="#6DECAF"/>
</g>
</g>
</g>
<defs>
<path id="path0_fill" fill-rule="evenodd" d="M 30.8368 0C 30.8802 0 30.9217 0.0169678 30.952 0.0479679C 30.983 0.078968 31 0.119432 31 0.163158L 31 30.8368C 31 30.8802 30.983 30.9217 30.9524 30.9524C 30.922 30.983 30.8806 31 30.8368 31L 0.163158 31C 0.119431 31 0.0789685 30.983 0.0479684 30.9524C 0.0169685 30.922 0 30.8806 0 30.8368L 0 0.163158C 0 0.120085 0.017621 0.0783157 0.0479684 0.0479679C 0.0783157 0.017622 0.120084 0 0.163158 0L 30.8368 0ZM 2.12105 28.8789L 28.8789 28.8789L 28.8789 2.12105L 2.12105 2.12105L 2.12105 28.8789Z"/>
<path id="path1_fill" fill-rule="evenodd" d="M 21.9708 18.6449C 19.2242 16.9859 19.5509 14.6475 19.5509 14.6475C 19.9317 13.1249 18.599 6.02755 18.599 6.02755C 17.9735 -1.31456 11.7311 0.011261 10.958 0.235441C 7.18188 1.3299 7.45012 3.58018 7.45012 3.58018C 5.13849 5.8918 6.36218 7.60463 6.36218 7.60463C 4.72502 10.0386 5.77023 12.5084 6.42154 14.0475C 6.57069 14.3999 6.69918 14.7035 6.77007 14.9467C 6.77986 14.9807 6.789 15.0153 6.79716 15.0499C 7.10553 16.3404 6.2806 17.9652 6.2806 17.9652C 3.91155 18.9536 3.26218 21.2283 3.26218 21.2283C 1.16821 22.5336 1.92983 25.2257 1.92983 25.2257C 1.23086 25.4048 0.451621 26.6677 0 27.5099L 27.2203 27.5099C 26.8108 23.2443 21.9708 18.6449 21.9708 18.6449ZM 8.19281 10.6485C 7.89195 9.87644 7.72194 8.99865 7.72194 8.06734C 7.72194 7.88101 7.72028 7.68902 7.7186 7.49356C 7.71686 7.29093 7.71508 7.08457 7.71508 6.87694C 7.71052 5.49369 7.80254 4.04811 8.4072 3.3077C 9.01708 2.52781 10.3703 2.43677 11.4879 2.43677C 11.5287 2.43677 11.5689 2.43677 11.609 2.43709C 11.6417 2.43709 11.6742 2.43714 11.7065 2.43722C 11.7327 2.43728 11.7588 2.43735 11.7847 2.43743L 11.7852 2.43743C 11.841 2.43759 11.896 2.43774 11.95 2.43774C 13.1022 2.43774 14.1533 3.05252 14.9254 4.06932C 15.6964 5.0858 16.1791 6.5007 16.1784 8.06702L 16.1791 8.06702C 16.1791 9.63301 15.6964 11.0476 14.9254 12.0641C 14.1536 13.0805 13.1022 13.6953 11.95 13.6953C 10.3338 13.6979 8.90548 12.4768 8.19281 10.6485ZM 13.1603 23.2133C 13.1603 23.2133 14.3569 21.6633 15.7438 21.0922C 15.7438 21.0922 17.5388 17.2309 15.686 11.4656C 14.8699 12.9999 13.5157 14.0154 11.9497 14.022C 11.3591 14.0213 10.7981 13.8725 10.2835 13.6082C 10.3002 14.2018 10.3543 15.06 10.5227 15.7354C 10.5227 15.7354 6.2806 17.3944 6.48455 20.3447C 6.48455 20.3447 6.87874 23.7028 13.1603 23.2133Z"/>
</defs>
</svg>
