<?xml version="1.0" encoding="UTF-8"?>
<svg width="20px" height="20px" viewBox="0 0 20 20" version="1.1" xmlns="http://www.w3.org/2000/svg" xmlns:xlink="http://www.w3.org/1999/xlink">
    <!-- Generator: Sketch 43.1 (39012) - http://www.bohemiancoding.com/sketch -->
    <title>insta</title>
    <desc>Created with Sketch.</desc>
    <defs></defs>
    <g id="Page-1" stroke="none" stroke-width="1" fill="none" fill-rule="evenodd">
        <g id="home" transform="translate(-192.000000, -2695.000000)" fill-rule="nonzero" fill="#444444">
            <g id="footer" transform="translate(70.000000, 2653.000000)">
                <g id="follow" transform="translate(0.000000, 42.000000)">
                    <g id="insta" transform="translate(122.000000, 0.000000)">
                        <path d="M17.625,0 L2.375,0 C1.0625,0 0,1.0625 0,2.375 L0,17.625 C0,18.9375 1.0625,20 2.375,20 L17.625,20 C18.9375,20 20,18.9375 20,17.625 L20,2.375 C20,1.0625 18.9375,0 17.625,0 Z M15,2.5 L16.875,2.5 C17.25,2.5 17.5,2.75 17.5,3.125 L17.5,5 C17.5,5.375 17.25,5.625 16.875,5.625 L15,5.625 C14.625,5.625 14.375,5.375 14.375,5 L14.375,3.125 C14.375,2.75 14.625,2.5 15,2.5 Z M10,6.1875 C12.125,6.1875 13.875,7.875 13.875,10 C13.875,12.125 12.125,13.8125 10,13.8125 C7.875,13.8125 6.125,12.125 6.125,10 C6.1875,7.875 7.875,6.1875 10,6.1875 Z M17.5,18.125 L2.5,18.125 C2.125,18.125 1.875,17.875 1.875,17.5 L1.875,8.125 L4.375,8.125 C4.0625,8.625 3.9375,9.4375 3.9375,10 C3.9375,13.375 6.6875,16.0625 10,16.0625 C13.375,16.0625 16.0625,13.3125 16.0625,10 C16.0625,9.4375 16,8.5625 15.5625,8.125 L18.0625,8.125 L18.0625,17.5 C18.125,17.875 17.875,18.125 17.5,18.125 Z" id="Shape"></path>
                    </g>
                </g>
            </g>
        </g>
    </g>
</svg>