<?xml version="1.0" encoding="UTF-8"?>
<svg width="21px" height="28px" viewBox="0 0 21 28" version="1.1" xmlns="http://www.w3.org/2000/svg" xmlns:xlink="http://www.w3.org/1999/xlink">
    <!-- Generator: Sketch 43.1 (39012) - http://www.bohemiancoding.com/sketch -->
    <title>place</title>
    <desc>Created with Sketch.</desc>
    <defs></defs>
    <g id="Page-1" stroke="none" stroke-width="1" fill="none" fill-rule="evenodd">
        <g id="home" transform="translate(-24.000000, -363.000000)" fill-rule="nonzero" fill="#6DECAF">
            <g id="leftNav" transform="translate(-1.000000, 200.000000)">
                <g id="place" transform="translate(25.000000, 163.333333)">
                    <path d="M9.79156118,5.88185654 C7.43881857,5.88185654 5.53586498,7.81940928 5.53586498,10.1721519 C5.53586498,12.5248945 7.43881857,14.4624473 9.79156118,14.4624473 C12.1443038,14.4624473 14.0472574,12.5248945 14.0472574,10.1721519 C14.0472574,7.81940928 12.1443038,5.88185654 9.79156118,5.88185654 Z M9.79156118,12.7324895 C8.40759494,12.7324895 7.26582278,11.5907173 7.26582278,10.1721519 C7.26582278,8.7535865 8.40759494,7.61181435 9.79156118,7.61181435 C11.1755274,7.61181435 12.3172996,8.7535865 12.3172996,10.1721519 C12.3172996,11.5907173 11.1755274,12.7324895 9.79156118,12.7324895 Z" id="Shape"></path>
                    <path d="M10.0925207,0 C4.79884986,0 0.37015788,4.2556962 0.0241663183,9.65316456 C-0.148829462,12.0751055 0.612351972,14.5316456 2.13471484,16.5729958 L9.40053763,26.9527426 C9.57353341,27.1949367 9.8157275,27.3333333 10.1271199,27.3333333 C10.4385123,27.3333333 10.6807064,27.1949367 10.8537022,26.9527426 L18.0849258,16.5729958 C19.6072887,14.4970464 20.3684701,12.0405063 20.2300735,9.65316456 C19.8148836,4.2556962 15.3861916,0 10.0925207,0 Z M16.6317613,15.5696203 L10.0925207,24.9459916 L3.51868109,15.5696203 C2.23851231,13.8396624 1.58112834,11.7983122 1.71952497,9.79156118 C1.99631822,5.84725738 5.17944058,1.72995781 10.0579216,1.72995781 C14.9364026,1.72995781 18.1541241,5.81265823 18.3963182,9.79156118 C18.569314,11.7637131 17.9465292,13.8396624 16.6317613,15.5696203 Z" id="Shape"></path>
                </g>
            </g>
        </g>
    </g>
</svg>