<svg width="10" height="11" viewBox="0 0 10 11" version="1.1" xmlns="http://www.w3.org/2000/svg" xmlns:xlink="http://www.w3.org/1999/xlink">
<title>Shape</title>
<desc>Created using Figma</desc>
<g id="Canvas" transform="translate(-955 1009)">
<g id="Shape">
<use xlink:href="#path0_fill" transform="translate(955 -1008.36)" fill="#A5A5A5"/>
</g>
</g>
<defs>
<path id="path0_fill" fill-rule="evenodd" d="M 0 3.94562C 0 1.76965 1.76965 0 3.94562 0C 6.12164 0 7.8913 1.76965 7.8913 3.94562C 7.8913 4.93994 7.52197 5.84863 6.91309 6.54321L 9.91754 9.54761C 10.0203 9.65033 10.0203 9.81482 9.91754 9.91754C 9.81482 10.0203 9.65039 10.0202 9.54767 9.91754L 6.53906 6.91309C 5.84485 7.52081 4.93884 7.8913 3.94562 7.8913C 1.76965 7.8913 0 6.12164 0 3.94562ZM 7.36517 3.94562C 7.36517 2.05396 5.83728 0.526062 3.94562 0.526062C 2.05396 0.526062 0.526062 2.05396 0.526062 3.94562C 0.526062 5.83728 2.05396 7.36517 3.94562 7.36517C 5.83728 7.36517 7.36517 5.83728 7.36517 3.94562Z"/>
</defs>
</svg>
