<svg width="33" height="32" viewBox="0 0 33 32" version="1.1" xmlns="http://www.w3.org/2000/svg" xmlns:xlink="http://www.w3.org/1999/xlink">
<title>smiley</title>
<desc>Created using Figma</desc>
<g id="Canvas" transform="translate(-547 -97)">
<g id="smiley">
<g id="Shape">
<use xlink:href="#path0_fill" transform="translate(547.32 97.1564)" fill="#6DECAF"/>
</g>
<g id="Shape">
<use xlink:href="#path1_fill" transform="translate(569.762 116.117)" fill="#E05F5F"/>
</g>
<g id="Oval">
<use xlink:href="#path2_fill" transform="translate(555.696 106.793)" fill="#6DECAF"/>
</g>
<g id="Shape">
<use xlink:href="#path3_fill" transform="translate(565.621 108.681)" fill="#6DECAF"/>
</g>
<g id="Shape">
<use xlink:href="#path4_fill" transform="translate(561.994 115.103)" fill="#6DECAF"/>
</g>
</g>
</g>
<defs>
<path id="path0_fill" d="M 25.5229 27.0647C 22.9357 29.2338 19.5954 30.5455 15.9504 30.5455C 7.76197 30.5455 1.10037 23.9389 1.10037 15.8182C 1.10037 7.69745 7.76197 1.09091 15.9504 1.09091C 24.1388 1.09091 30.8004 7.69745 30.8004 15.8182C 30.8004 16.6858 30.7201 17.5345 30.5741 18.3611C 30.9445 18.4673 31.2917 18.6375 31.6012 18.8669C 31.7955 17.88 31.9 16.8615 31.9 15.8182C 31.9 7.08218 24.7588 0 15.95 0C 7.1412 0 0 7.08218 0 15.8182C 0 24.5542 7.1412 31.6364 15.95 31.6364C 19.9419 31.6364 23.5888 30.1785 26.3861 27.7745C 26.0975 27.5418 25.8082 27.3047 25.5229 27.0647Z"/>
<path id="path1_fill" d="M 5.2811 1.06311C 5.1755 1.19584 4.9709 1.19656 4.86493 1.0642C 3.1306 -1.1038 0 0.294019 0 2.98166C 0 4.81111 3.52587 7.53911 4.71607 8.49802C 4.92507 8.66638 5.22207 8.66384 5.42777 8.49184C 6.5813 7.52747 9.91723 4.80711 9.91723 2.98166C 9.91723 0.314383 7.00113 -1.10198 5.2811 1.06311Z"/>
<path id="path2_fill" d="M 1.54293 4.54545C 2.39507 4.54545 3.08587 3.52792 3.08587 2.27273C 3.08587 1.01753 2.39507 0 1.54293 0C 0.690795 0 0 1.01753 0 2.27273C 0 3.52792 0.690795 4.54545 1.54293 4.54545Z"/>
<path id="path3_fill" d="M 0.122569 1.64691C 0.231469 1.74509 0.383269 1.76691 0.511236 1.716L 0.541669 1.70364C 0.541669 1.70364 0.611702 1.67527 0.727936 1.62182C 0.842702 1.56618 1.00954 1.49636 1.20314 1.42C 1.3003 1.38145 1.40517 1.34436 1.5159 1.31018C 1.62517 1.26909 1.74434 1.25091 1.86167 1.21418C 1.9823 1.19236 2.10514 1.16836 2.23017 1.15564C 2.35447 1.13418 2.48207 1.13782 2.60894 1.13564C 3.1164 1.13345 3.6334 1.28218 4.0294 1.43127C 4.12914 1.46655 4.21127 1.50509 4.29194 1.53418C 4.36747 1.56109 4.44777 1.60036 4.50974 1.62873C 4.63587 1.68545 4.70994 1.71491 4.70994 1.71491C 4.90244 1.79127 5.1206 1.69891 5.19797 1.508C 5.25444 1.36909 5.21924 1.21527 5.1217 1.11309C 5.1217 1.11309 5.0667 1.05564 4.96697 0.960364C 4.91564 0.913091 4.86174 0.855273 4.77117 0.790909C 4.6861 0.728 4.58967 0.646545 4.47894 0.580727C 4.36747 0.514545 4.2527 0.432364 4.11337 0.371636C 3.97917 0.302909 3.8325 0.236 3.67154 0.185091C 3.5135 0.129091 3.34154 0.0843636 3.16517 0.052C 2.98734 0.0218182 2.804 0.00363636 2.61884 0C 2.43514 0.00254545 2.2485 0.0105455 2.07067 0.0436364C 1.8899 0.0647273 1.72124 0.121455 1.55734 0.167636C 1.23797 0.281455 0.956369 0.42 0.743336 0.570545C 0.525536 0.714545 0.363102 0.854545 0.258602 0.959273C 0.152636 1.06327 0.0961691 1.12545 0.0961691 1.12545C -0.0416975 1.27673 -0.0299642 1.50982 0.122569 1.64691Z"/>
<path id="path4_fill" d="M 5.83815 5.46164C 5.72485 5.16673 5.52795 4.90091 5.29292 4.70782C 5.05752 4.51182 4.79388 4.38346 4.53245 4.29C 4.28458 4.20673 4.03818 4.15037 3.79325 4.10964C 3.86218 4.08673 3.93112 4.06564 4.00005 4.03691C 4.21675 3.95 4.42722 3.81837 4.61385 3.64309C 4.79865 3.46818 4.95485 3.23837 5.03478 2.99218C 5.11912 2.74637 5.14002 2.49691 5.14222 2.27291L 5.13892 1.96455C 5.14075 1.85473 5.12058 1.69364 5.08942 1.57873C 4.96402 1.08927 4.66372 0.657638 4.24865 0.386365C 3.83725 0.11182 3.35545 -0.00199831 2.90738 0.000547148C 2.45602 -0.00818013 2.02738 0.0885471 1.62332 0.215456C 1.42275 0.287093 1.22585 0.359456 1.03592 0.450002C 0.84305 0.538365 0.663383 0.638365 0.484816 0.743456C 0.471616 0.751093 0.46355 0.767093 0.46795 0.782729C 0.471983 0.803093 0.491783 0.816184 0.512316 0.812183L 1.11622 0.692183C 1.31642 0.658729 1.51442 0.624183 1.71242 0.602365C 1.91042 0.584547 2.10585 0.562002 2.29945 0.564184C 2.49268 0.562729 2.68225 0.571456 2.86558 0.596911C 3.23152 0.649274 3.56885 0.768547 3.82442 0.970729C 4.07302 1.174 4.26808 1.45146 4.32968 1.75473C 4.34655 1.83691 4.34985 1.87909 4.35058 1.97218L 4.36012 2.27255C 4.36195 2.45327 4.34838 2.61437 4.30292 2.75473C 4.22665 3.03691 4.01508 3.25982 3.70488 3.43546C 3.39725 3.60891 3.02398 3.72746 2.64082 3.82091C 2.25655 3.92055 1.85505 3.98164 1.44878 4.06018L 1.44842 4.06018L 1.44842 4.06091C 1.44805 4.06091 1.44805 4.06091 1.44768 4.06091L 1.43558 4.062L 1.43485 4.062C 1.39488 4.06527 1.36518 4.10055 1.36885 4.14018C 1.37215 4.17982 1.40772 4.20927 1.44768 4.20564L 1.44805 4.20564C 1.65375 4.24127 1.86165 4.26818 2.07138 4.28418C 2.13005 4.28782 2.19018 4.28527 2.24922 4.28746C 2.47618 4.31764 2.70168 4.35255 2.92352 4.39873C 3.40128 4.50273 3.87172 4.64673 4.25965 4.87909C 4.44995 4.99691 4.62228 5.12709 4.74878 5.27618C 4.88042 5.42127 4.96732 5.58127 5.02452 5.75291C 5.07878 5.92491 5.10628 6.11873 5.09638 6.32018C 5.09272 6.48055 5.03552 6.68455 4.95118 6.86055C 4.77335 7.21982 4.47012 7.534 4.10052 7.74382C 3.72798 7.95146 3.28945 8.05873 2.83368 8.066C 2.60562 8.06455 2.37388 8.04637 2.14142 8.00891C 1.91042 7.96346 1.67758 7.90891 1.44768 7.834C 1.21632 7.76382 0.990083 7.67146 0.764583 7.57291C 0.542383 7.46855 0.31945 7.36018 0.097983 7.24346C 0.071583 7.22964 0.0371163 7.23437 0.016583 7.25764C -0.00761699 7.28491 -0.00505032 7.32637 0.0224497 7.35C 0.21275 7.51618 0.410383 7.67727 0.622316 7.82055C 0.834983 7.96237 1.05315 8.10018 1.28525 8.21837C 1.51332 8.34491 1.76155 8.43509 2.01308 8.52055C 2.26792 8.59764 2.53192 8.658 2.80435 8.68418C 3.34702 8.734 3.92708 8.66418 4.44702 8.41473C 4.96732 8.17255 5.42235 7.76746 5.70248 7.24164C 5.84035 6.97437 5.94265 6.69655 5.96868 6.36018C 5.98738 6.06637 5.95292 5.75727 5.83815 5.46164Z"/>
</defs>
</svg>
