<svg width="30" height="32" viewBox="0 0 30 32" version="1.1" xmlns="http://www.w3.org/2000/svg" xmlns:xlink="http://www.w3.org/1999/xlink">
<title>sportIcon</title>
<desc>Created using Figma</desc>
<g id="Canvas" transform="translate(-415 28)">
<g id="sportIcon">
<g id="Shape">
<use xlink:href="#path0_fill" transform="translate(415.074 -27.6708)" fill="#6DECAF"/>
</g>
</g>
</g>
<defs>
<path id="path0_fill" fill-rule="evenodd" d="M 22.7393 6.80598C 24.5828 7.22326 26.4152 6.06454 26.8362 4.21524C 27.1469 2.85579 26.6104 1.44242 25.4771 0.635324C 24.3438 -0.171766 22.8375 -0.213274 21.6618 0.530191C 20.4861 1.27365 19.873 2.65536 20.109 4.02987C 20.345 5.40437 21.3835 6.50041 22.7393 6.80598ZM 2.33975 17.6972L 7.06699 18.7822L 9.22888 15.8435C 9.29691 15.752 9.41156 15.7082 9.52298 15.7313C 9.63437 15.7543 9.72244 15.84 9.74887 15.9511C 9.93704 16.739 10.2941 17.4763 10.7952 18.1116L 11.5168 19.0321C 11.6859 19.248 11.6669 19.5568 11.4727 19.7502L 9.15326 22.0784C 8.70563 22.5961 8.00989 22.8237 7.3443 22.6699L 1.44159 21.3129C 0.931061 21.1954 0.493713 20.867 0.237427 20.4085C -0.0188599 19.95 -0.070282 19.4042 0.0959167 18.9056C 0.428192 17.988 1.39438 17.4677 2.33975 17.6972ZM 10.5525 3.55094C 10.9547 3.15099 11.546 3.01054 12.0841 3.18716L 12.5505 3.339C 15.4703 4.2802 18.238 5.64312 20.7664 7.38486C 21.4094 7.8272 21.9081 8.44997 22.2003 9.17529L 23.4767 12.3386L 28.081 12.9428C 28.9064 13.0353 29.5186 13.7549 29.4803 14.5877C 29.4492 15.0077 29.2461 15.3959 28.9193 15.66C 28.5942 15.9245 28.1732 16.0394 27.7596 15.9764L 22.1751 15.2488L 22.0302 15.2235C 21.5306 15.1118 21.1208 14.755 20.9398 14.2745L 19.7516 11.8325L 17.3943 15.9669L 19.9408 20.7656C 20.3553 21.3112 20.4319 22.0434 20.1393 22.6636L 16.846 29.9139C 16.5103 30.6419 15.7498 31.0744 14.9551 30.9894C 14.8831 30.9822 14.8115 30.9706 14.7408 30.9546C 14.4388 30.8907 14.1573 30.7526 13.9214 30.5529C 13.2859 29.9808 13.1057 29.0548 13.4802 28.2848L 16.3008 22.1448L 12.2858 17.0108C 11.1736 15.6036 11.0408 13.6538 11.9518 12.1077L 14.7408 7.83089L 12.0179 6.40424L 8.68369 9.70672C 8.38376 10.0045 7.97433 10.1643 7.55276 10.1481C 7.1312 10.1319 6.73514 9.94122 6.45874 9.62131C 5.93915 8.98277 5.99539 8.0507 6.58795 7.47976L 10.5525 3.55094Z"/>
</defs>
</svg>
