<?xml version="1.0" encoding="UTF-8"?>
<svg width="25px" height="20px" viewBox="0 0 25 20" version="1.1" xmlns="http://www.w3.org/2000/svg" xmlns:xlink="http://www.w3.org/1999/xlink">
    <!-- Generator: Sketch 43.1 (39012) - http://www.bohemiancoding.com/sketch -->
    <title>twitter</title>
    <desc>Created with Sketch.</desc>
    <defs></defs>
    <g id="Page-1" stroke="none" stroke-width="1" fill="none" fill-rule="evenodd">
        <g id="home" transform="translate(-232.000000, -2695.000000)" fill-rule="nonzero" fill="#444444">
            <g id="footer" transform="translate(70.000000, 2653.000000)">
                <g id="follow" transform="translate(0.000000, 42.000000)">
                    <g id="twitter" transform="translate(162.000000, 0.000000)">
                        <path d="M24.6923077,2.38461538 C23.7692308,2.76923077 22.8461538,3.07692308 21.7692308,3.15384615 C22.8461538,2.53846154 23.6153846,1.53846154 24,0.384615385 C23,1 21.9230769,1.38461538 20.7692308,1.61538462 C19.8461538,0.615384615 18.5384615,0 17.1538462,0 C14.3846154,0 12.0769231,2.23076923 12.0769231,5.07692308 C12.0769231,5.46153846 12.1538462,5.84615385 12.2307692,6.23076923 C8,6 4.30769231,4 1.76923077,0.923076923 C1.30769231,1.69230769 1.07692308,2.53846154 1.07692308,3.46153846 C1.07692308,5.23076923 2,6.76923077 3.30769231,7.69230769 C2.46153846,7.69230769 1.69230769,7.46153846 1,7.07692308 L1,7.15384615 C1,9.61538462 2.76923077,11.6153846 5.07692308,12.0769231 C4.61538462,12.1538462 4.23076923,12.2307692 3.76923077,12.2307692 C3.46153846,12.2307692 3.15384615,12.2307692 2.84615385,12.1538462 C3.46153846,14.1538462 5.38461538,15.6153846 7.53846154,15.6923077 C5.84615385,17.0769231 3.61538462,17.8461538 1.23076923,17.8461538 C0.846153846,17.8461538 0.384615385,17.8461538 0,17.7692308 C2.30769231,19.1538462 5,20 7.84615385,20 C17.1538462,20 22.2307692,12.3076923 22.2307692,5.61538462 L22.2307692,5 C23.1538462,4.23076923 24,3.38461538 24.6923077,2.38461538 Z" id="Shape"></path>
                    </g>
                </g>
            </g>
        </g>
    </g>
</svg>