<?xml version="1.0" encoding="UTF-8"?>
<svg width="21px" height="21px" viewBox="0 0 21 21" version="1.1" xmlns="http://www.w3.org/2000/svg" xmlns:xlink="http://www.w3.org/1999/xlink">
    <!-- Generator: Sketch 43.1 (39012) - http://www.bohemiancoding.com/sketch -->
    <title>Shape</title>
    <desc>Created with Sketch.</desc>
    <defs></defs>
    <g id="Page-1" stroke="none" stroke-width="1" fill="none" fill-rule="evenodd">
        <g id="home" transform="translate(-24.000000, -225.000000)" fill-rule="nonzero" fill="#6DECAF">
            <g id="leftNav" transform="translate(-1.000000, 200.000000)">
                <g id="user" transform="translate(25.000000, 25.000000)">
                    <path d="M10.25,0 C4.59828226,0 0,4.59828226 0,10.25 C0,15.9017177 4.59828226,20.5 10.25,20.5 C15.9017177,20.5 20.5,15.9017177 20.5,10.25 C20.5,4.59828226 15.9017177,0 10.25,0 Z M1.1069425,10.1659697 C1.1069425,5.17069713 5.20816615,1.1069425 10.2494966,1.1069425 C15.290827,1.1069425 19.3920506,5.17069713 19.3920506,10.1659697 C19.3920506,12.4744597 18.514996,14.582714 17.0752013,16.1842875 C15.9166191,14.4755675 14.1823711,13.3088273 12.2031658,12.8661845 C13.8374762,12.1274052 14.9784039,10.4970927 14.9784039,8.60406842 C14.9784039,6.0203714 12.857016,3.91836472 10.2494966,3.91836472 C7.6419771,3.91836472 5.52058929,6.0203714 5.52058929,8.60406842 C5.52058929,10.540826 6.71290445,12.2070622 8.40806008,12.9199139 C6.44430251,13.4231585 4.71383771,14.6539367 3.60979549,16.3838985 C2.0602902,14.760146 1.1069425,12.5719223 1.1069425,10.1659697 Z M10.2499283,12.4493658 C8.12562908,12.4493658 6.39726508,10.7210018 6.39726508,8.59670252 C6.39726508,6.47240328 8.12562908,4.74403927 10.2499283,4.74403927 C12.3742276,4.74403927 14.1025916,6.47240328 14.1025916,8.59670252 C14.1025916,10.7210018 12.3742276,12.4493658 10.2499283,12.4493658 Z M4.21335379,17.2222129 C5.52219845,15.2341233 7.88428537,14.0021038 10.4122518,14.0021038 C12.8982858,14.0021038 15.1527669,15.1398984 16.4955275,17.0530621 C14.8832898,18.5004935 12.6824575,19.3944953 10.2580887,19.3944953 C7.929301,19.3944953 5.80616687,18.570027 4.21335379,17.2222129 Z" id="Shape"></path>
                </g>
            </g>
        </g>
    </g>
</svg>